<svg width="29" height="24" viewBox="0 0 29 24" fill="none" xmlns="http://www.w3.org/2000/svg">
<path d="M18.9853 6.04388C18.9853 5.97264 19.0063 5.90023 19.0086 5.82899C19.0612 5.09672 18.8089 4.37728 18.3126 3.83771C17.7065 3.18368 17.6878 2.17928 18.2682 1.5019L18.8895 0.775466C18.9771 0.687873 19.0238 0.566412 19.0192 0.442609C19.0145 0.317643 18.9573 0.200855 18.8627 0.120276C18.7692 0.0385219 18.6454 0.00114893 18.5216 0.0151652C18.3978 0.0280119 18.2857 0.093415 18.211 0.192686L17.571 0.930815C16.695 1.9539 16.7242 3.471 17.6399 4.45911C17.9692 4.81648 18.135 5.293 18.1 5.77768C18.065 6.2612 17.8314 6.70967 17.4542 7.01565L17.1038 7.31463H17.105C16.9555 7.43376 16.8982 7.63463 16.9625 7.8145C17.0267 7.99437 17.1972 8.11465 17.3888 8.11348C17.4915 8.11348 17.5908 8.07728 17.6702 8.01071L18.0206 7.71173H18.0194C18.2892 7.50034 18.5158 7.23874 18.6863 6.94092C24.4265 7.48749 27.5216 8.95905 27.5216 10.0743C27.5216 10.4515 27.2226 10.8392 26.6246 11.2106C24.2328 9.88623 19.5354 9.06986 14.2168 9.06986C8.89823 9.06986 4.1764 9.87337 1.79381 11.1978C1.21103 10.8275 0.896857 10.4386 0.896857 10.0614C0.896857 8.86547 4.30825 7.40327 10.0544 6.89876C10.0124 6.9373 9.96797 6.97935 9.92242 7.01555L9.57204 7.31453H9.57321C9.38051 7.47103 9.35131 7.75248 9.50781 7.94521C9.66314 8.13791 9.94576 8.16711 10.1385 8.01061L10.4889 7.71163H10.4877C11.0588 7.2503 11.4115 6.57292 11.4641 5.84065C11.5154 5.10839 11.262 4.38778 10.7633 3.84937C10.1595 3.19418 10.142 2.19094 10.7213 1.51473L11.3426 0.788296H11.3437C11.5037 0.599096 11.4827 0.316471 11.2935 0.155289C11.1055 -0.00588019 10.8229 0.0163105 10.6617 0.204341L10.0392 0.930779C9.1621 1.95387 9.19131 3.47097 10.1058 4.45907C10.4386 4.81412 10.6068 5.29297 10.5694 5.77765C10.5694 5.83721 10.5694 5.89677 10.5484 5.9575C5.64449 6.34292 0 7.61709 0 10.0625V10.4515V10.4503C0.00233565 12.8024 0.747457 15.0938 2.12792 16.9974C3.50838 18.9011 5.4553 20.32 7.68959 21.0522L7.36024 22.0543H7.3614C7.25863 22.3579 7.28899 22.6908 7.44432 22.9722C7.60316 23.2596 7.87411 23.4674 8.19178 23.5457C9.47648 23.8458 10.7904 23.9988 12.1091 24H16.2948C17.6145 23.9988 18.9296 23.8458 20.2142 23.5434C20.5318 23.4663 20.8016 23.2584 20.9593 22.9722C21.1135 22.6931 21.1438 22.3626 21.0422 22.0601L20.7129 21.0522H20.714C22.9482 20.3199 24.895 18.9009 26.2757 16.9974C27.6562 15.0937 28.4013 12.8024 28.4036 10.4503V10.0614C28.4036 7.80731 23.599 6.52261 18.9857 6.04364L18.9853 6.04388ZM2.79807 11.6941C5.18993 10.6243 9.50425 9.95389 14.2016 9.95389C18.8989 9.95389 23.2153 10.6231 25.6051 11.6941C23.33 12.6751 19.4188 13.3116 15.1407 13.3957H15.0391H14.2052H13.3713H13.2697C8.98466 13.3116 5.07337 12.6751 2.79841 11.6941H2.79807ZM19.8517 21.292L20.1811 22.3443C20.2033 22.4097 20.1975 22.4821 20.1636 22.5416C20.1285 22.607 20.0678 22.6549 19.9954 22.6736C18.782 22.9574 17.5405 23.1022 16.2943 23.1034H12.1085C10.8601 23.1034 9.61625 22.9586 8.40176 22.6736C8.32818 22.6561 8.26628 22.6082 8.23124 22.5416C8.19971 22.4786 8.19621 22.405 8.2219 22.3384L8.55126 21.292H8.60498C8.78133 21.334 8.95769 21.3702 9.13753 21.4053L9.25666 21.4263C9.42133 21.4532 9.58835 21.4777 9.75653 21.4975C9.80441 21.4975 9.84879 21.4975 9.89667 21.5151C10.0613 21.5361 10.2225 21.5478 10.3872 21.5594H10.5308C10.7399 21.5594 10.9466 21.577 11.1592 21.577L17.245 21.5793C17.4575 21.5793 17.6631 21.5793 17.8733 21.5618H18.017C18.1816 21.5618 18.3428 21.5384 18.5075 21.5174C18.5554 21.5174 18.5997 21.5174 18.6476 21.4999C18.8146 21.48 18.9828 21.4555 19.1498 21.4286L19.2631 21.4076C19.4453 21.3749 19.6252 21.3364 19.8015 21.2943L19.8517 21.292ZM20.0316 20.3168C19.8132 20.3799 19.5925 20.4336 19.3706 20.478H19.3262V20.4791C18.8964 20.5656 18.462 20.6251 18.0251 20.6578H17.8873C17.6748 20.6578 17.4622 20.6789 17.2508 20.6789H11.1579C10.9453 20.6789 10.7327 20.6789 10.5214 20.6578H10.3835C9.94676 20.6251 9.51228 20.5656 9.08249 20.4791H9.03811C8.81738 20.4348 8.59546 20.381 8.37709 20.318V20.3168C6.43137 19.7655 4.69003 18.6537 3.37272 17.118C2.0565 15.5822 1.22028 13.6937 0.971527 11.6861C1.04978 11.7491 1.1362 11.8087 1.22613 11.8683L1.31255 11.9255C1.37562 11.9675 1.44453 12.0061 1.51343 12.0481L1.55548 12.075L1.58234 12.096C3.71375 13.3153 7.8224 14.12 12.543 14.273H15.8692C20.5899 14.12 24.6985 13.3165 26.8299 12.096L26.8603 12.075L26.8988 12.0481C26.9677 12.0061 27.0366 11.9675 27.1021 11.922L27.1861 11.8683C27.2761 11.8087 27.3625 11.7491 27.4407 11.6861H27.4372C27.1896 13.6949 26.3558 15.5857 25.0384 17.124C23.721 18.6609 21.9798 19.7751 20.0316 20.3264L20.0316 20.3168ZM13.872 4.45907C12.9563 3.47102 12.9283 1.95276 13.8066 0.930773L14.4279 0.204335H14.429C14.4991 0.0957203 14.6136 0.0221404 14.742 0.00462304C14.8717 -0.0140634 15.0013 0.0244778 15.0994 0.109734C15.1975 0.194989 15.2536 0.318788 15.2536 0.449587C15.2536 0.579223 15.1964 0.703023 15.0982 0.788275L14.5003 1.51471C13.921 2.19092 13.9409 3.19532 14.5447 3.84935C15.0445 4.38776 15.298 5.10834 15.2454 5.84063C15.1929 6.5729 14.8401 7.25028 14.2702 7.71161L13.9175 8.01059C13.8381 8.07716 13.7388 8.11337 13.6361 8.11337C13.4422 8.12037 13.2658 8.00358 13.1969 7.82256C13.1292 7.64036 13.1852 7.43597 13.3371 7.31453L13.6898 7.01554C14.067 6.70956 14.3006 6.26109 14.3356 5.77641C14.3707 5.29289 14.2025 4.81528 13.872 4.45907Z" fill="black"/>
<path d="M2.79807 11.6941C5.18993 10.6243 9.50425 9.95389 14.2016 9.95389C18.8989 9.95389 23.2153 10.6231 25.6051 11.6941C23.33 12.6751 19.4188 13.3116 15.1407 13.3957H15.0391H14.2052H13.3713H13.2697C8.98466 13.3116 5.07337 12.6751 2.79841 11.6941H2.79807Z" fill="#CC4804"/>
</svg>
