<svg width="44" height="35" viewBox="0 0 44 35" fill="none" xmlns="http://www.w3.org/2000/svg">
<path d="M28.5237 10C25.4506 10 23.7302 12.0163 23.2378 14.0921C22.6796 13.0344 22.2659 11.6197 21.9442 10.3041H17.6958V15.6258C17.6958 17.5562 16.8224 18.9841 15.1152 18.9841C13.4079 18.9841 12.4295 17.5562 12.4295 15.6258L12.4492 10.3041H10V15.6258C10 17.1794 10.499 18.5875 11.4118 19.5923C12.3508 20.6302 13.6312 21.1723 15.1152 21.1723C18.07 21.1723 20.1319 18.8916 20.1319 15.6258V12.0494C20.4405 13.2261 21.1759 15.487 22.5811 17.4703L21.2679 25H23.7565L24.6233 19.665C24.9056 19.903 25.2077 20.1146 25.5294 20.3063C26.3633 20.8352 27.3155 21.1327 28.3004 21.1657C28.3004 21.1657 28.4514 21.1723 28.5302 21.1723C31.577 21.1723 34 18.799 34 15.5928C34 12.3865 31.5705 10 28.5237 10ZM28.5237 18.9775C26.6391 18.9775 25.3915 17.5099 25.0435 16.9414C25.49 13.3451 26.7967 12.208 28.5237 12.208C30.2309 12.208 31.5573 13.5831 31.5573 15.5928C31.5573 17.6025 30.2309 18.9775 28.5237 18.9775Z" fill="#14A800"/>
</svg>
