<svg width="44" height="45" viewBox="0 0 44 45" fill="none" xmlns="http://www.w3.org/2000/svg">
<path fill-rule="evenodd" clip-rule="evenodd" d="M17.8581 34.5334L10 10H15.8667L23.4047 34.5334H17.8581ZM17.8989 34.4772H23.3281C22.8792 33.0155 15.8248 10.0562 15.8248 10.0562H10.0772L17.8989 34.4772ZM23.2806 26.4928L28.2046 10H34L27.0019 31.8494L23.2806 26.4928ZM23.3424 26.4831L26.983 31.7238L33.9229 10.0562H28.2465L23.3424 26.4831Z" fill="#FF85FB"/>
<path d="M17.8989 34.4772H23.3281C22.8792 33.0155 15.8248 10.0562 15.8248 10.0562H10.0772L17.8989 34.4772Z" fill="#FF85FB"/>
<path d="M23.3424 26.4831L26.983 31.7238L33.9229 10.0562H28.2465L23.3424 26.4831Z" fill="#FF85FB"/>
</svg>
