<svg width="14" height="24" viewBox="0 0 14 24" fill="none" xmlns="http://www.w3.org/2000/svg">
<path fill-rule="evenodd" clip-rule="evenodd" d="M8.66999 0.0465826C8.65337 0.0661691 8.60173 0.194965 8.55543 0.334445C8.42486 0.715493 8.20703 1.20338 7.91205 1.77257C7.63487 2.30438 7.48055 2.64447 7.38974 2.91571C7.08348 3.83331 7.05914 4.7883 7.30486 6.33386C7.45443 7.27342 7.48292 7.5601 7.46808 7.92393C7.45325 8.24622 7.41526 8.46998 7.35175 8.59403C7.24967 8.79346 6.90067 9.73302 6.78612 10.1158C6.76238 10.1918 6.74042 10.2535 6.73685 10.2518C6.73329 10.2512 6.73389 10.2132 6.73685 10.1687C6.7511 10.0244 6.75644 9.63449 6.74813 9.40835C6.72617 8.73291 6.60806 8.10555 6.33978 7.22713L6.24007 6.90068L6.25669 6.77485C6.26737 6.70541 6.30298 6.49411 6.338 6.30656C6.40507 5.93619 6.42881 5.68691 6.41694 5.45425C6.41338 5.37293 6.40982 5.30408 6.411 5.3023C6.411 5.29874 6.44009 5.29993 6.47511 5.30349C6.72914 5.32664 6.93331 4.99545 6.86743 4.66544C6.82232 4.44465 6.6413 4.32594 6.48282 4.41616C6.35699 4.48679 6.17775 4.77584 6.2098 4.85715C6.21692 4.87496 6.22404 4.92126 6.22523 4.95924C6.22582 4.99723 6.24304 5.06845 6.26203 5.11653C6.29408 5.19725 6.29586 5.22871 6.27983 5.49639C6.27212 5.65664 6.25431 5.86913 6.24066 5.96646C6.19793 6.31487 6.15579 6.62113 6.15282 6.62054C6.14629 6.61698 6.02818 6.20091 5.989 6.04125C5.93321 5.8169 5.89819 5.60975 5.83706 5.13908C5.80916 4.926 5.77889 4.73429 5.77177 4.71649C5.75871 4.68325 5.76228 4.68028 5.84478 4.64764C6.04242 4.5687 6.16706 4.32535 6.16469 4.01909C6.16291 3.75556 6.03589 3.48788 5.87208 3.40478C5.80264 3.36917 5.71539 3.37392 5.62161 3.41903C5.48925 3.48254 5.33256 3.65941 5.38657 3.68434C5.402 3.69087 5.4026 3.7241 5.38242 3.81017C5.30169 4.18587 5.39785 4.5408 5.61033 4.64526L5.67918 4.6785L5.67799 4.77287C5.67443 4.92363 5.70233 5.28509 5.7326 5.51301C5.78186 5.8804 5.84656 6.15877 6.02046 6.74043C6.07269 6.91493 6.11483 7.06212 6.11365 7.06569C6.11008 7.07043 6.0899 7.03542 6.06616 6.9909C6.04123 6.9452 5.95458 6.80275 5.87148 6.67395C5.5035 6.09645 5.43761 5.96765 5.27855 5.53141L5.16756 5.22455L5.20614 5.18953C5.30585 5.1005 5.35749 4.83816 5.31475 4.63874C5.2738 4.45177 5.13907 4.27312 4.98534 4.20368C4.79185 4.11643 4.59005 4.19715 4.52892 4.38708C4.48559 4.52181 4.52832 4.69393 4.65178 4.87555C4.68323 4.92363 4.7319 5.00138 4.7598 5.04768C4.84289 5.1925 4.9248 5.25898 5.02867 5.26669C5.08328 5.26907 5.0904 5.27381 5.09693 5.31595C5.12542 5.47502 5.20554 5.74033 5.27677 5.92373C5.38716 6.20447 5.43702 6.28638 5.92787 7.00752C5.95161 7.04254 5.93262 7.03126 5.66909 6.84192C5.41268 6.65734 4.96991 6.27985 4.97466 6.25077C4.97585 6.24246 4.98416 6.23118 4.99068 6.22821C5.02808 6.21397 5.072 6.10416 5.07912 6.00564C5.08743 5.90711 5.08209 5.88218 5.03461 5.74626C4.94439 5.49579 4.81262 5.33198 4.65237 5.27025C4.45947 5.19725 4.28319 5.33435 4.29863 5.54446C4.30694 5.65249 4.44226 6.02997 4.50577 6.12078C4.59599 6.24721 4.71885 6.3208 4.8239 6.30893C4.85595 6.30478 4.88088 6.32318 4.97407 6.42586C5.18358 6.65615 5.23581 6.69592 5.85843 7.11673C6.09999 7.27995 6.09703 7.27639 6.23473 7.56306C6.30654 7.71145 6.33503 7.78742 6.37124 7.92156C6.54455 8.58572 6.61696 9.23148 6.59975 9.94787C6.59084 10.2969 6.52734 11.0495 6.49469 11.2026C6.3291 11.97 6.19674 13.0538 6.15044 14.0409C6.14154 14.2148 6.13383 14.3833 6.13205 14.4142L6.12908 14.4712L6.05785 14.3169C5.82341 13.8118 5.77949 13.7049 5.74209 13.5417C5.66019 13.1969 5.66731 12.9541 5.77177 12.3143C5.81094 12.0757 5.85309 11.7902 5.86377 11.681C5.91125 11.2133 5.88098 10.729 5.77355 10.2387C5.68393 9.82917 5.62754 9.66001 5.2827 8.78574C5.02689 8.13464 4.92955 7.87407 4.84171 7.59274C4.68739 7.10486 4.43633 6.47453 4.28023 6.17717C3.99474 5.64002 3.60063 5.04887 3.26588 4.6601C3.12106 4.49213 3.0439 4.4221 2.98099 4.40429C2.92163 4.38648 2.89255 4.39836 2.86228 4.44999C2.82607 4.51053 2.83142 4.58828 2.89433 5.00672C3.01422 5.79137 3.035 6.18429 3.01126 7.21525C2.97743 8.67831 3.0528 9.38817 3.32583 10.1532C3.51517 10.6809 3.77929 11.1373 4.42802 12.0549C4.99781 12.8591 5.24412 13.2354 5.47857 13.6479C5.59371 13.8539 5.62042 13.9133 5.85605 14.5086L6.11008 15.1472L6.10415 15.3644C6.08397 16.069 6.05785 16.5954 5.99316 17.5884C5.93143 18.5327 5.90591 19.2082 5.91481 19.6913C5.916 19.7578 5.91363 19.8124 5.91006 19.8106C5.90175 19.8064 5.8519 19.4284 5.82934 19.2129C5.82103 19.1239 5.79314 18.6847 5.76524 18.2359C5.70114 17.151 5.66553 16.8008 5.5676 16.2589C5.38063 15.2451 4.97822 14.1305 4.53307 13.3993C4.34789 13.0972 4.06181 12.7303 3.77216 12.4271C3.6493 12.2977 3.58639 12.1926 3.60419 12.1487C3.62259 12.1065 3.54722 11.481 3.48964 11.1937C3.4475 10.983 3.25698 10.4999 3.15489 10.3479C3.09673 10.2613 2.91689 10.0375 2.85991 9.97874C2.85219 9.97043 2.8694 9.9544 2.90145 9.93482C3.02135 9.86834 3.06586 9.68375 3.02194 9.43388C2.9519 9.03384 2.70203 8.762 2.48361 8.84925C2.33522 8.90801 2.25985 9.11812 2.30021 9.35197C2.30852 9.39945 2.33997 9.48729 2.3744 9.56089C2.44443 9.71462 2.56611 9.85528 2.67829 9.91404C2.73111 9.94253 2.76019 9.97102 2.79284 10.0262C2.81895 10.0666 2.8878 10.1728 2.94953 10.263C3.12818 10.5242 3.17804 10.6174 3.27657 10.8649C3.37628 11.1159 3.4202 11.2815 3.48489 11.6489C3.54544 11.9843 3.54365 11.9849 3.42198 11.6822C3.18635 11.0981 2.89255 10.656 2.4201 10.1728C2.20049 9.94847 1.78977 9.59175 1.59153 9.45406C1.54523 9.42141 1.50665 9.39233 1.50547 9.38936C1.50487 9.38817 1.52565 9.37215 1.55236 9.35494C1.70252 9.26056 1.70786 9.03858 1.56601 8.77802C1.31494 8.31507 0.938645 8.15719 0.815784 8.46405C0.759992 8.60412 0.803913 8.80948 0.928555 8.99882C1.05082 9.18222 1.15884 9.28253 1.31613 9.35375C1.38201 9.38283 1.43543 9.422 1.493 9.48195C1.53752 9.52943 1.6948 9.68197 1.84378 9.81967C2.3738 10.3123 2.66107 10.6304 2.91985 11.0085C3.0255 11.1616 3.19584 11.4537 3.27241 11.6145L3.32405 11.7208L3.26826 11.64C2.98277 11.2222 2.57204 10.8382 1.96605 10.4233C1.7316 10.2619 1.44908 10.0879 1.3375 10.0357L1.24966 9.99417L1.28408 9.91998C1.3102 9.86181 1.31554 9.83095 1.30248 9.77872C1.24491 9.53478 0.815784 9.2202 0.500619 9.19112C0.462633 9.18697 0.396157 9.19587 0.352829 9.20833C0.140938 9.2754 0.117791 9.52943 0.307721 9.7069C0.381319 9.77456 0.552256 9.88496 0.663246 9.936C0.798571 10.0001 1.0342 10.0399 1.15232 10.0215C1.17784 10.0179 1.2087 10.031 1.25025 10.0672C1.28349 10.0951 1.49122 10.2446 1.71142 10.399C2.24323 10.7717 2.4658 10.9426 2.71449 11.1682C3.0077 11.4329 3.24451 11.7237 3.40061 12.0086C3.44216 12.0858 3.44038 12.0852 3.18694 11.8632C3.04687 11.7392 2.84744 11.5747 2.74654 11.497C2.57026 11.3623 1.99394 10.961 1.89957 10.9082C1.86218 10.8851 1.85506 10.8768 1.85684 10.8405C1.86574 10.6862 1.67106 10.4821 1.40932 10.3669C1.09712 10.2298 0.806881 10.2927 0.850802 10.4868C0.860299 10.5307 0.885227 10.5622 0.983753 10.6571C1.13036 10.7972 1.25203 10.8797 1.40041 10.9367C1.5488 10.9937 1.67166 11.0067 1.75772 10.9741C1.82419 10.9492 1.82597 10.9503 1.89779 11.0073C1.93756 11.0394 2.10197 11.1682 2.26281 11.2922C2.62784 11.5747 2.83082 11.7356 2.96437 11.8561L3.07002 11.9493L2.83913 11.8579C2.51981 11.7308 2.3471 11.6691 2.01887 11.5593C1.86277 11.5071 1.59094 11.4032 1.41525 11.3302L1.09593 11.1949L1.10068 11.148C1.11314 11.0192 1.00393 10.9082 0.765334 10.8043C0.554036 10.7135 0.364106 10.6916 0.213943 10.742C0.0999848 10.7794 0.0435994 10.8221 0.0145163 10.8963C-0.0394951 11.0293 0.0572506 11.148 0.30416 11.2566C0.45373 11.3213 0.644253 11.3712 0.659685 11.3504C0.665027 11.3439 0.711322 11.3397 0.763553 11.3397C0.831216 11.3415 0.885821 11.3308 0.954077 11.3035L1.05082 11.2667L1.12917 11.3183C1.34759 11.4638 1.59034 11.5629 2.21889 11.7629C2.35006 11.8044 2.64089 11.9036 2.86584 11.9843L3.27597 12.1315L3.44988 12.3042C3.99177 12.8461 4.30931 13.2687 4.61201 13.8497C4.74556 14.1085 5.03342 14.8214 5.13669 15.1526C5.43287 16.0963 5.53436 16.7195 5.63645 18.2075C5.69936 19.1102 5.74803 19.5079 5.84774 19.9056C5.87742 20.029 5.90888 20.1679 5.91541 20.213C5.92787 20.2919 5.95992 20.9478 5.95161 20.943C5.94924 20.9407 5.91837 20.8516 5.88157 20.7436C5.84656 20.635 5.75931 20.3833 5.68808 20.1839C5.50231 19.658 5.43524 19.3459 5.38954 18.7909C5.27439 17.3777 5.13254 16.8489 4.50755 15.4938C4.38291 15.222 4.21375 14.8516 4.13184 14.6694C3.74724 13.8118 3.54247 13.4337 3.25401 13.0473C2.79996 12.4431 1.95596 11.6608 1.7322 11.6383C1.61646 11.627 1.54583 11.7095 1.54939 11.8513C1.54998 11.897 1.5761 12.0697 1.60637 12.2377C1.66631 12.5731 1.70786 12.8847 1.76187 13.3927C1.82657 14.0035 1.87049 14.2373 2.06754 14.9976C2.13224 15.2469 2.2367 15.6891 2.29961 15.9793C2.36253 16.269 2.43612 16.5824 2.46343 16.6761C2.53168 16.9147 2.73705 17.3914 2.84685 17.567C3.11691 17.9932 3.37034 18.2822 4.0072 18.8876C4.72834 19.5732 4.94261 19.8029 5.20732 20.1762C5.45839 20.527 5.61211 20.8255 5.8424 21.4048L6.01512 21.8375L6.0537 22.339C6.11899 23.1913 6.18546 23.7493 6.23651 23.8787C6.27331 23.9706 6.37658 24.0229 6.45908 23.9902C6.50597 23.9718 6.55701 23.8959 6.56176 23.8365C6.56532 23.808 6.54692 23.6626 6.52081 23.5136C6.45196 23.1082 6.41813 22.767 6.34097 21.714C6.29823 21.114 6.29705 21.0997 6.33029 20.8671C6.3748 20.5472 6.41694 20.3887 6.51843 20.1477C6.65732 19.8219 6.81579 19.5797 7.07813 19.2954C7.26391 19.0942 7.46334 18.9161 7.87169 18.5832C8.81896 17.8116 9.11573 17.5534 9.66356 17.0281C10.7622 15.977 11.05 15.6654 11.3605 15.1935C11.5759 14.8641 11.7047 14.619 12.1018 13.7655C12.5974 12.7042 12.8134 12.303 13.1316 11.8555C13.3025 11.6139 13.3251 11.57 13.3031 11.5148C13.2799 11.4572 13.2188 11.4305 13.1589 11.4531C13.1345 11.4626 13.0461 11.5249 12.963 11.5914C12.7731 11.7415 12.5036 11.9172 12.2425 12.0608C12.0436 12.1718 11.8145 12.2805 11.1729 12.5677C10.5467 12.8485 10.1538 13.0894 9.67721 13.4829C8.80768 14.2011 8.17439 15.0243 7.69185 16.063C7.46096 16.5622 7.29596 17.0109 7.08763 17.7196C6.92797 18.2621 6.86743 18.4306 6.66741 18.9144C6.47926 19.366 6.38964 19.6171 6.31604 19.899C6.28696 20.0029 6.26203 20.0878 6.25965 20.0854C6.2555 20.0836 6.25253 20.0314 6.24956 19.9685C6.24719 19.8788 6.2555 19.8355 6.28814 19.7732C6.41991 19.5126 6.54633 19.1393 6.62111 18.7867C6.68878 18.4603 6.72558 18.1736 6.77484 17.554L6.81995 16.9955L6.97545 16.6708C7.2829 16.0268 7.43781 15.7485 7.87406 15.0576C8.23493 14.4896 8.43791 14.1269 8.48658 13.969C8.49786 13.9299 8.51151 13.8972 8.51745 13.8949C8.5216 13.8931 8.54238 13.9103 8.56315 13.934C8.63853 14.0201 8.82134 14.0272 8.962 13.9489C9.38104 13.7186 9.66949 13.0479 9.42911 12.8669C9.3383 12.7998 9.17924 12.836 8.99821 12.9636C8.95073 12.9968 8.87001 13.0467 8.82193 13.0734C8.59935 13.1939 8.43435 13.5108 8.47234 13.7459C8.4848 13.8254 8.48362 13.8302 8.41536 13.918C8.37619 13.9685 8.25867 14.1489 8.15302 14.3186C8.04796 14.4872 7.87999 14.7561 7.77969 14.9157C7.39508 15.53 7.2093 15.8743 6.98792 16.3859L6.84072 16.7278L6.8615 16.5474C6.92085 16.0161 7.01641 15.5775 7.23067 14.8605C7.3019 14.6237 7.33098 14.5163 7.36422 14.3715C7.3654 14.3673 7.39449 14.3798 7.42832 14.397C7.63783 14.5044 7.97259 14.2658 8.12038 13.9014C8.14827 13.8349 8.17201 13.7429 8.17498 13.6937C8.18388 13.5328 8.10494 13.4099 7.98208 13.3981C7.89958 13.3898 7.7144 13.4568 7.66514 13.5132C7.64436 13.5376 7.62893 13.5625 7.63368 13.5702C7.63783 13.5767 7.60282 13.6242 7.55593 13.6747C7.37787 13.8664 7.29062 14.0747 7.31555 14.2492C7.31911 14.27 7.30486 14.3186 7.2829 14.356C7.20752 14.486 6.98732 15.1051 6.89177 15.4564C6.74279 16.0061 6.68818 16.4079 6.62111 17.4228C6.5671 18.2466 6.52021 18.6324 6.42169 19.0532C6.38608 19.2111 6.28814 19.5536 6.26262 19.6135C6.25194 19.6385 6.25016 19.6373 6.246 19.604C6.23116 19.4177 6.26262 18.4692 6.32019 17.4982C6.3653 16.7195 6.38845 16.1865 6.4021 15.5894L6.41219 15.2226L6.55286 15.0362C6.82588 14.6748 6.9345 14.4991 7.13333 14.0955C7.34997 13.6563 7.47402 13.4396 7.6687 13.1618C7.90492 12.8277 8.13046 12.5671 8.31624 12.4176C8.4486 12.3107 8.59105 12.2282 8.90087 12.0798C9.52823 11.7771 9.83746 11.5783 10.1918 11.2447C10.4708 10.9824 10.6696 10.7426 10.9349 10.3538C11.2329 9.91523 11.4703 9.47542 11.7172 8.90029C12.0068 8.22485 12.1451 7.77317 12.3956 6.68701C12.5582 5.98427 12.6182 5.75517 12.7493 5.34801C12.8277 5.10881 12.8271 5.05955 12.7464 5.01385C12.6882 4.97942 12.6389 5.00257 12.4727 5.13671C12.2763 5.29459 12.1137 5.40676 11.7771 5.61272C11.2655 5.9261 11.0239 6.12256 10.7141 6.47928C10.1324 7.14878 9.74012 7.88713 9.28845 9.16797C8.85517 10.3966 8.37441 11.5967 8.15539 11.9973C8.04678 12.1968 7.82598 12.5375 7.6319 12.8087C7.35234 13.1951 7.25679 13.3589 6.90898 14.032C6.78078 14.2818 6.62824 14.5543 6.57066 14.6409C6.4478 14.8202 6.4484 14.8184 6.58135 14.5679C6.71905 14.3097 6.88346 13.9388 6.98139 13.6628C7.10722 13.3102 7.21346 12.8942 7.37846 12.1202C7.60816 11.0346 7.68413 10.7931 7.91561 10.4108L7.9714 10.32L8.02304 10.3414C8.13699 10.3883 8.29369 10.3497 8.41239 10.2482C8.62428 10.0654 8.8065 9.63508 8.78394 9.36681C8.75664 9.01366 8.49252 8.85756 8.21475 9.03205C8.0444 9.13948 7.89839 9.35197 7.83726 9.5781C7.7785 9.79415 7.75773 10.1782 7.7969 10.2897C7.80521 10.3099 7.788 10.3473 7.73933 10.4162C7.51022 10.7331 7.41585 11.0317 7.16242 12.23C6.99563 13.0253 6.91313 13.3542 6.80036 13.6948C6.72617 13.9204 6.44306 14.6439 6.43178 14.6403C6.42822 14.6386 6.43059 14.4819 6.43771 14.2913C6.49113 12.7298 6.6413 11.5148 6.91729 10.3942C7.05499 9.8357 7.14876 9.53537 7.26213 9.2849C7.32326 9.15076 7.38796 8.98991 7.40695 8.92878C7.47461 8.70739 7.623 8.505 7.97021 8.16134C8.26816 7.86636 8.41952 7.69483 8.54772 7.50846C9.10504 6.69829 9.29023 5.52488 9.13413 3.80838C9.11751 3.63982 9.07833 3.24809 9.04213 2.93767C8.93529 1.97793 8.89849 1.47343 8.8801 0.751104C8.86407 0.0744786 8.85873 0.0418344 8.78394 0.00919013C8.73943 -0.00980288 8.70856 -0.000306377 8.66999 0.0465826ZM8.70322 0.751104C8.71984 1.46868 8.75367 1.95301 8.85932 3.03442C8.89968 3.44336 8.94182 3.90869 8.95191 4.07013C9.05578 5.72312 8.82549 6.82056 8.21593 7.5785C8.13106 7.68533 7.67226 8.16906 7.64792 8.17856C7.64377 8.18034 7.68116 8.07944 7.73399 7.9548C8.00879 7.27876 8.1459 6.54338 8.14352 5.72965C8.14293 5.57236 8.14293 5.28925 8.14174 5.10169C8.13937 4.68444 8.15243 4.28143 8.18922 3.65288C8.21 3.25759 8.22958 2.69492 8.22128 2.67415C8.22009 2.67118 8.21059 2.67177 8.20228 2.67533C8.16133 2.69136 8.0539 3.58106 8.00998 4.2476C7.98327 4.66722 7.97733 4.97171 7.98208 5.49639C7.98742 6.00979 7.98327 6.14334 7.95537 6.44901C7.92926 6.74755 7.8705 7.09892 7.80165 7.36601C7.75001 7.57137 7.623 7.99753 7.6135 8.00109C7.60934 8.00287 7.61172 7.93224 7.61647 7.8444C7.63012 7.6147 7.604 7.24137 7.54287 6.82827C7.33395 5.39015 7.29537 4.99011 7.3102 4.37461C7.32029 3.93659 7.39152 3.4766 7.51023 3.09377C7.59747 2.81066 7.80402 2.35305 8.07764 1.83371C8.24858 1.51142 8.39696 1.20397 8.51389 0.929757C8.61063 0.701841 8.69254 0.515472 8.69373 0.514879C8.69551 0.515472 8.69907 0.620527 8.70322 0.751104ZM3.17626 4.77881C3.47896 5.13255 3.81549 5.64596 4.10573 6.19913C4.2464 6.46919 4.5117 7.1559 4.65593 7.62657C4.75446 7.95005 4.83696 8.18152 5.10583 8.88011C5.44533 9.76922 5.49875 9.92769 5.58065 10.3141C5.67859 10.7794 5.70411 11.2513 5.65485 11.6923C5.64535 11.7884 5.60914 12.024 5.57709 12.2164C5.54445 12.4092 5.50706 12.6568 5.49519 12.7666C5.48213 12.877 5.47144 12.9541 5.47026 12.9399C5.46432 12.8597 5.4115 12.5244 5.38776 12.4116C5.29991 12.0039 5.2922 11.9801 4.90165 10.9658C4.48796 9.89446 4.46778 9.83214 4.34077 9.2576C4.30397 9.08429 4.23393 8.74123 4.18823 8.49372C4.10395 8.03433 4.01492 7.61767 3.98584 7.54526C3.95378 7.46513 3.95082 7.54467 3.97218 7.81472C4.00483 8.24563 4.10276 8.90326 4.20425 9.38995C4.31287 9.91464 4.46956 10.3883 4.72953 10.9788C5.04588 11.6964 5.164 12.0181 5.27617 12.4716C5.32366 12.6627 5.40734 13.0924 5.39963 13.1096C5.39785 13.1138 5.31891 12.9986 5.22513 12.855C5.13076 12.7096 4.87554 12.3398 4.65771 12.0335C4.03985 11.1605 3.86832 10.8886 3.65464 10.4405C3.39587 9.89446 3.25164 9.27065 3.2089 8.51153C3.1905 8.18568 3.18813 7.83193 3.20059 7.10011C3.21721 6.09704 3.1905 5.71006 3.05637 4.92957C2.99642 4.58769 2.99582 4.58591 3.02431 4.60847C3.03559 4.61796 3.10444 4.69453 3.17626 4.77881ZM12.5161 5.39015C12.5178 5.3943 12.4983 5.46909 12.4721 5.55574C12.4033 5.78662 12.3208 6.11544 12.2009 6.63716C11.9771 7.60283 11.8406 8.05213 11.5783 8.67178C11.2186 9.52647 10.8174 10.1948 10.3396 10.7367C9.92708 11.2032 9.56266 11.4679 8.87772 11.8021C8.72696 11.8751 8.58926 11.941 8.57027 11.9487C8.5495 11.957 8.62725 11.8561 8.77623 11.6869C9.34602 11.0352 9.64872 10.5568 9.98228 9.77931C10.2197 9.23148 10.4292 8.65813 10.5378 8.26462C10.5895 8.08181 10.5948 8.04026 10.5705 8.04976C10.5444 8.06044 10.3325 8.51984 10.1378 8.98576C9.53595 10.428 9.36086 10.7444 8.68423 11.6276C8.52635 11.8341 8.38628 12.0217 8.37263 12.043C8.3293 12.119 8.30674 12.1024 8.3477 12.0258C8.57086 11.6062 9.06231 10.4019 9.45048 9.32289C9.86002 8.18449 10.0731 7.73519 10.507 7.10605C10.8791 6.56653 11.2275 6.22287 11.7148 5.91601C12.1374 5.65071 12.2929 5.54921 12.3902 5.47383C12.5113 5.38243 12.5125 5.38065 12.5161 5.39015ZM1.89304 11.9196C2.23076 12.1528 2.82489 12.7582 3.13234 13.1814C3.41723 13.5785 3.57927 13.8854 3.98702 14.8065C4.11701 15.1003 4.24521 15.3864 4.27132 15.441C4.4114 15.7289 4.65534 16.3135 4.7509 16.5853C4.99484 17.2869 5.07556 17.7178 5.15094 18.687C5.17765 19.0455 5.21504 19.3393 5.26193 19.5738C5.29042 19.7138 5.29101 19.7186 5.25955 19.6717C5.19664 19.5773 4.76396 18.814 4.63635 18.5737C4.33899 18.0098 4.33899 18.0098 3.86416 16.8043C3.43444 15.7123 3.24392 15.2612 3.02788 14.8142C2.90798 14.5691 2.74951 14.2789 2.71687 14.2456C2.69016 14.2183 2.69016 14.2183 2.70203 14.2759C2.70856 14.308 3.03203 15.1419 3.42198 16.1295C4.16746 18.0187 4.1538 17.9879 4.44167 18.5238C4.57224 18.7678 4.80135 19.1636 4.95032 19.4022C4.99899 19.4812 5.03935 19.5494 5.03639 19.5542C5.03461 19.5577 4.99247 19.5156 4.93964 19.4586C4.80372 19.3108 4.59361 19.1061 4.19001 18.731C3.61428 18.1962 3.33592 17.8964 3.11572 17.5718C2.95606 17.3332 2.8973 17.2228 2.77978 16.926C2.65395 16.6067 2.62309 16.4933 2.47945 15.8357C2.42663 15.5912 2.32454 15.1626 2.25213 14.8843C2.06517 14.1631 2.02481 13.9417 1.95299 13.2533C1.9061 12.8069 1.87049 12.5541 1.80223 12.1944C1.74644 11.8905 1.73873 11.8347 1.75238 11.8294C1.75534 11.8282 1.81945 11.8691 1.89304 11.9196ZM12.6134 12.2365C12.3938 12.6134 12.2335 12.9298 11.8685 13.699C11.1646 15.1822 11.034 15.3579 9.59946 16.7545C9.02432 17.313 8.7145 17.586 7.92451 18.2235C7.66632 18.4306 7.44375 18.6105 7.4295 18.6194C7.41585 18.6295 7.45443 18.5612 7.51438 18.4674C7.57373 18.3736 7.74408 18.0977 7.89127 17.8561C8.46878 16.9118 8.76317 16.4957 9.24452 15.9431C9.57809 15.5603 9.90869 15.2285 10.5794 14.6018C10.91 14.2937 11.2685 13.9394 11.2815 13.9085C11.3017 13.8628 11.2524 13.8901 11.0779 14.0201C10.7005 14.3038 10.0042 14.9134 9.60183 15.3122C9.15312 15.7568 8.797 16.1817 8.41892 16.7266C8.19872 17.0447 8.04203 17.2952 7.71381 17.8585C7.24432 18.6692 7.09831 18.8906 6.88227 19.1346C6.80274 19.2236 6.73567 19.2978 6.7327 19.299C6.72854 19.3007 6.81995 19.0829 6.93509 18.8158C7.11968 18.3879 7.16301 18.265 7.31911 17.7528C7.52566 17.0691 7.6408 16.7515 7.83904 16.3052C8.37025 15.1086 9.09911 14.1898 10.101 13.4556C10.4933 13.1672 10.796 12.9992 11.3967 12.7333C11.9896 12.4722 12.2947 12.3202 12.5647 12.1505C12.6176 12.1184 12.671 12.0858 12.6858 12.0787C12.6995 12.0733 12.6668 12.1433 12.6134 12.2365ZM6.45967 14.803C6.46086 14.8053 6.45196 14.8184 6.44009 14.8326C6.42406 14.8522 6.41991 14.8534 6.41931 14.8362C6.41872 14.819 6.45433 14.7887 6.45967 14.803Z" fill="#0F7399"/>
</svg>
