<svg width="159" height="23" viewBox="0 0 159 23" fill="none" xmlns="http://www.w3.org/2000/svg">
<path d="M3.86486 17.3999L0.000859383 0.887902H5.52086L6.96086 7.9439C6.99286 8.0719 7.03286 8.2719 7.08086 8.5439C7.12886 8.7999 7.18486 9.0879 7.24886 9.4079C7.31286 9.7119 7.36886 9.9919 7.41686 10.2479H7.51286C7.54486 10.1039 7.57686 9.9359 7.60886 9.7439C7.65686 9.5359 7.69686 9.3279 7.72886 9.1199C7.77686 8.9119 7.81686 8.7039 7.84886 8.4959C7.89686 8.2879 7.93686 8.1039 7.96886 7.9439L9.38486 0.887902H14.6169L16.1289 7.9439C16.1609 8.1039 16.2009 8.3199 16.2489 8.5919C16.3129 8.8639 16.3769 9.1519 16.4409 9.4559C16.5049 9.7439 16.5609 10.0079 16.6089 10.2479H16.7049C16.7369 10.0879 16.7689 9.9119 16.8009 9.7199C16.8489 9.5119 16.8889 9.3039 16.9209 9.0959C16.9529 8.8879 16.9849 8.6879 17.0169 8.4959C17.0649 8.2879 17.1049 8.1039 17.1369 7.9439L18.4809 0.887902H23.7609L19.8969 17.3999H14.0649L12.4329 9.6719C12.4009 9.4639 12.3529 9.2239 12.2889 8.9519C12.2249 8.6639 12.1609 8.3759 12.0969 8.0879C12.0329 7.7999 11.9769 7.5519 11.9289 7.3439H11.8329C11.7849 7.5359 11.7289 7.7759 11.6649 8.0639C11.6169 8.3359 11.5609 8.6159 11.4969 8.9039C11.4329 9.1759 11.3769 9.4319 11.3289 9.6719L9.69686 17.3999H3.86486ZM30.7312 17.6879C29.2112 17.6879 27.8912 17.4559 26.7712 16.9919C25.6672 16.5119 24.8112 15.7839 24.2032 14.8079C23.6112 13.8319 23.3152 12.5839 23.3152 11.0639C23.3152 9.5759 23.6112 8.3439 24.2032 7.3679C24.7952 6.3919 25.6192 5.6639 26.6752 5.1839C27.7472 4.6879 29.0032 4.4399 30.4432 4.4399C31.9632 4.4399 33.2512 4.6799 34.3072 5.1599C35.3792 5.6239 36.1952 6.3439 36.7552 7.3199C37.3152 8.2959 37.5952 9.5439 37.5952 11.0639V11.8799H28.0912C28.0912 12.4559 28.1712 12.9519 28.3312 13.3679C28.5072 13.7839 28.7792 14.1039 29.1472 14.3279C29.5312 14.5359 30.0272 14.6399 30.6352 14.6399C31.0672 14.6399 31.4272 14.5919 31.7152 14.4959C32.0192 14.3999 32.2592 14.2719 32.4352 14.1119C32.6272 13.9359 32.7632 13.7359 32.8432 13.5119C32.9232 13.2879 32.9632 13.0479 32.9632 12.7919H37.5952C37.5952 13.5439 37.4512 14.2239 37.1632 14.8319C36.8752 15.4399 36.4432 15.9599 35.8672 16.3919C35.2912 16.8079 34.5712 17.1279 33.7072 17.3519C32.8592 17.5759 31.8672 17.6879 30.7312 17.6879ZM28.1152 9.6239H32.7712C32.7712 9.2879 32.7232 8.9919 32.6272 8.7359C32.5312 8.4639 32.3872 8.2399 32.1952 8.0639C32.0192 7.8719 31.7952 7.7279 31.5232 7.6319C31.2672 7.5359 30.9712 7.4879 30.6352 7.4879C30.1072 7.4879 29.6672 7.5759 29.3152 7.7519C28.9632 7.9279 28.6912 8.1759 28.4992 8.4959C28.3072 8.7999 28.1792 9.1759 28.1152 9.6239ZM48.251 17.6879C47.435 17.6879 46.675 17.5199 45.971 17.1839C45.283 16.8479 44.731 16.3199 44.315 15.5999H44.147L43.811 17.3999H39.923V-9.82285e-05H44.699V5.9039H44.867C45.123 5.5839 45.427 5.3199 45.779 5.1119C46.131 4.8879 46.515 4.7199 46.931 4.6079C47.363 4.4959 47.803 4.4399 48.251 4.4399C49.371 4.4399 50.331 4.6879 51.131 5.1839C51.931 5.6639 52.539 6.3919 52.955 7.3679C53.387 8.3439 53.603 9.5679 53.603 11.0399C53.603 12.5279 53.387 13.7679 52.955 14.7599C52.539 15.7359 51.931 16.4719 51.131 16.9679C50.331 17.4479 49.371 17.6879 48.251 17.6879ZM46.763 14.1599C47.259 14.1599 47.659 14.0639 47.963 13.8719C48.267 13.6639 48.483 13.3759 48.611 13.0079C48.755 12.6399 48.827 12.2079 48.827 11.7119V10.4399C48.827 9.9439 48.755 9.5119 48.611 9.1439C48.483 8.7759 48.267 8.4879 47.963 8.2799C47.659 8.0719 47.259 7.9679 46.763 7.9679C46.395 7.9679 46.075 8.0399 45.803 8.1839C45.531 8.3279 45.307 8.5279 45.131 8.7839C44.971 9.0239 44.851 9.3119 44.771 9.6479C44.691 9.9679 44.651 10.3119 44.651 10.6799V11.4719C44.651 11.9679 44.723 12.4239 44.867 12.8399C45.011 13.2399 45.235 13.5599 45.539 13.7999C45.859 14.0399 46.267 14.1599 46.763 14.1599ZM60.2193 3.2399V-9.82285e-05H64.9953V3.2399H60.2193ZM60.2193 17.3999V4.7279H64.9953V17.3999H60.2193ZM72.6594 17.6879C71.5394 17.6879 70.5794 17.4479 69.7794 16.9679C68.9794 16.4719 68.3634 15.7359 67.9314 14.7599C67.5154 13.7679 67.3074 12.5279 67.3074 11.0399C67.3074 9.5679 67.5154 8.3439 67.9314 7.3679C68.3634 6.3919 68.9794 5.6639 69.7794 5.1839C70.5794 4.6879 71.5394 4.4399 72.6594 4.4399C73.1074 4.4399 73.5394 4.4959 73.9554 4.6079C74.3874 4.7039 74.7794 4.8639 75.1314 5.0879C75.4994 5.2959 75.8034 5.5679 76.0434 5.9039H76.2114V-9.82285e-05H80.9874V17.3999H77.0994L76.7634 15.5999H76.5954C76.1474 16.3199 75.5874 16.8479 74.9154 17.1839C74.2434 17.5199 73.4914 17.6879 72.6594 17.6879ZM74.1474 14.1599C74.6434 14.1599 75.0434 14.0399 75.3474 13.7999C75.6674 13.5599 75.8994 13.2399 76.0434 12.8399C76.1874 12.4239 76.2594 11.9679 76.2594 11.4719V10.6799C76.2594 10.3119 76.2194 9.9679 76.1394 9.6479C76.0594 9.3119 75.9314 9.0239 75.7554 8.7839C75.5954 8.5279 75.3794 8.3279 75.1074 8.1839C74.8354 8.0399 74.5154 7.9679 74.1474 7.9679C73.6514 7.9679 73.2514 8.0719 72.9474 8.2799C72.6434 8.4879 72.4194 8.7759 72.2754 9.1439C72.1474 9.5119 72.0834 9.9439 72.0834 10.4399V11.7119C72.0834 12.2079 72.1474 12.6399 72.2754 13.0079C72.4194 13.3759 72.6434 13.6639 72.9474 13.8719C73.2514 14.0639 73.6514 14.1599 74.1474 14.1599ZM90.7312 17.6879C89.2112 17.6879 87.8912 17.4559 86.7712 16.9919C85.6672 16.5119 84.8112 15.7839 84.2032 14.8079C83.6112 13.8319 83.3152 12.5839 83.3152 11.0639C83.3152 9.5759 83.6112 8.3439 84.2032 7.3679C84.7952 6.3919 85.6192 5.6639 86.6752 5.1839C87.7472 4.6879 89.0032 4.4399 90.4432 4.4399C91.9632 4.4399 93.2512 4.6799 94.3072 5.1599C95.3792 5.6239 96.1952 6.3439 96.7552 7.3199C97.3152 8.2959 97.5952 9.5439 97.5952 11.0639V11.8799H88.0912C88.0912 12.4559 88.1712 12.9519 88.3312 13.3679C88.5072 13.7839 88.7792 14.1039 89.1472 14.3279C89.5312 14.5359 90.0272 14.6399 90.6352 14.6399C91.0672 14.6399 91.4272 14.5919 91.7152 14.4959C92.0192 14.3999 92.2592 14.2719 92.4352 14.1119C92.6272 13.9359 92.7632 13.7359 92.8432 13.5119C92.9232 13.2879 92.9632 13.0479 92.9632 12.7919H97.5952C97.5952 13.5439 97.4512 14.2239 97.1632 14.8319C96.8752 15.4399 96.4432 15.9599 95.8672 16.3919C95.2912 16.8079 94.5712 17.1279 93.7072 17.3519C92.8592 17.5759 91.8672 17.6879 90.7312 17.6879ZM88.1152 9.6239H92.7712C92.7712 9.2879 92.7232 8.9919 92.6272 8.7359C92.5312 8.4639 92.3872 8.2399 92.1952 8.0639C92.0192 7.8719 91.7952 7.7279 91.5232 7.6319C91.2672 7.5359 90.9712 7.4879 90.6352 7.4879C90.1072 7.4879 89.6672 7.5759 89.3152 7.7519C88.9632 7.9279 88.6912 8.1759 88.4992 8.4959C88.3072 8.7999 88.1792 9.1759 88.1152 9.6239ZM99.899 17.3999V4.7279H103.811L104.123 6.6479H104.291C104.627 6.1519 105.019 5.7439 105.467 5.4239C105.915 5.0879 106.411 4.8399 106.955 4.6799C107.499 4.5199 108.059 4.4399 108.635 4.4399C109.643 4.4399 110.467 4.6319 111.107 5.0159C111.763 5.3839 112.251 5.9199 112.571 6.6239C112.891 7.3279 113.051 8.1839 113.051 9.1919V17.3999H108.275V9.7679C108.275 9.4959 108.235 9.2559 108.155 9.0479C108.091 8.8239 107.995 8.6319 107.867 8.4719C107.739 8.3119 107.571 8.1919 107.363 8.1119C107.171 8.0159 106.939 7.9679 106.667 7.9679C106.267 7.9679 105.915 8.0639 105.611 8.2559C105.323 8.4319 105.091 8.6719 104.915 8.9759C104.755 9.2639 104.675 9.5919 104.675 9.9599V17.3999H99.899ZM121.283 17.6879C120.419 17.6879 119.651 17.5919 118.979 17.3999C118.323 17.1919 117.811 16.8399 117.443 16.3439C117.075 15.8479 116.891 15.1679 116.891 14.3039V7.9679H115.115V4.7279H117.083L118.115 0.887902H121.667V4.7279H124.355V7.9679H121.667V12.7919C121.667 13.3359 121.755 13.7519 121.931 14.0399C122.107 14.3119 122.467 14.4479 123.011 14.4479H124.355V17.2559C124.099 17.3359 123.779 17.4079 123.395 17.4719C123.027 17.5519 122.651 17.6079 122.267 17.6399C121.899 17.6719 121.571 17.6879 121.283 17.6879ZM126.571 3.2399V-9.82285e-05H131.347V3.2399H126.571ZM126.571 17.3999V4.7279H131.347V17.3999H126.571ZM139.611 17.6879C138.747 17.6879 137.979 17.5919 137.307 17.3999C136.651 17.1919 136.139 16.8399 135.771 16.3439C135.403 15.8479 135.219 15.1679 135.219 14.3039V7.9679H133.443V4.7279H135.411L136.443 0.887902H139.995V4.7279H142.683V7.9679H139.995V12.7919C139.995 13.3359 140.083 13.7519 140.259 14.0399C140.435 14.3119 140.795 14.4479 141.339 14.4479H142.683V17.2559C142.427 17.3359 142.107 17.4079 141.723 17.4719C141.355 17.5519 140.979 17.6079 140.595 17.6399C140.227 17.6719 139.899 17.6879 139.611 17.6879ZM147.203 22.4399C146.627 22.4399 146.099 22.3919 145.619 22.2959C145.139 22.2159 144.747 22.1199 144.443 22.0079V19.1519H146.363C146.923 19.1519 147.347 19.0479 147.635 18.8399C147.939 18.6319 148.147 18.3919 148.259 18.1199C148.387 17.8479 148.467 17.6079 148.499 17.3999L143.459 4.7279H148.595L150.083 9.8639C150.163 10.1039 150.259 10.4239 150.371 10.8239C150.483 11.2239 150.595 11.6319 150.707 12.0479C150.835 12.4639 150.939 12.8319 151.019 13.1519H151.187C151.251 12.9279 151.315 12.6719 151.379 12.3839C151.459 12.0959 151.539 11.7999 151.619 11.4959C151.699 11.1759 151.779 10.8799 151.859 10.6079C151.939 10.3359 152.003 10.0959 152.051 9.8879L153.419 4.7279H158.123L153.611 17.0159C153.323 17.7999 152.995 18.5199 152.627 19.1759C152.275 19.8479 151.851 20.4239 151.355 20.9039C150.875 21.3999 150.291 21.7759 149.603 22.0319C148.931 22.3039 148.131 22.4399 147.203 22.4399Z" fill="black"/>
</svg>
